HIERARCHY
ROOT Hips
{
	OFFSET	0	0	0
	CHANNELS 6  Xposition Yposition Zposition Xrotation Yrotation Zrotation
	JOINT Spine
	{
		OFFSET	0	6.96085	1.39713
		CHANNELS 3  Xrotation Yrotation Zrotation
		JOINT Spine1
		{
			OFFSET	0	11.9146	-2.1276
			CHANNELS 3  Xrotation Yrotation Zrotation
			JOINT Spine2
			{
				OFFSET	0	9.03168	0.96806
				CHANNELS 3  Xrotation Yrotation Zrotation
				JOINT Spine3
				{
					OFFSET	0	10.8082	3.21268
					CHANNELS 3  Xrotation Yrotation Zrotation
					JOINT Spine4
					{
						OFFSET	0	15.9996	-1.63826
						CHANNELS 3  Xrotation Yrotation Zrotation
						JOINT Neck
						{
							OFFSET	0	7.6381	-5.35092
							CHANNELS 3  Xrotation Yrotation Zrotation
							JOINT Head
							{
								OFFSET	0	9.16998	-2.74461
								CHANNELS 3  Xrotation Yrotation Zrotation
								End Site
								{
									OFFSET	0	19.1272	-0.925508
								}
							}
						}
					}
					JOINT LeftShoulder
					{
						OFFSET	-4.59563	19.4463	-9.16997
						CHANNELS 3  Xrotation Yrotation Zrotation
						JOINT LeftArm
						{
							OFFSET	-10.0457	-2.74461	3.52121
							CHANNELS 3  Xrotation Yrotation Zrotation
							JOINT LeftForeArm
							{
								OFFSET	-31.2362	-1.42567	2.22961
								CHANNELS 3  Xrotation Yrotation Zrotation
								JOINT LeftHand
								{
									OFFSET	-26.6039	-1.83848	1.89896
									CHANNELS 3  Xrotation Yrotation Zrotation
									End Site
									{
										OFFSET	-9.70909	-0.670953	0.692979
									}
								}
							}
						}
					}
					JOINT RightShoulder
					{
						OFFSET	4.59563	19.4463	-9.16997
						CHANNELS 3  Xrotation Yrotation Zrotation
						JOINT RightArm
						{
							OFFSET	10.0457	-2.74461	3.52121
							CHANNELS 3  Xrotation Yrotation Zrotation
							JOINT RightForeArm
							{
								OFFSET	31.2362	-1.42567	2.22961
								CHANNELS 3  Xrotation Yrotation Zrotation
								JOINT RightHand
								{
									OFFSET	26.6039	-1.83848	1.89896
									CHANNELS 3  Xrotation Yrotation Zrotation
									End Site
									{
										OFFSET	9.70909	-0.670953	0.692979
									}
								}
							}
						}
					}
				}
			}
		}
	}
	JOINT LeftUpLeg
	{
		OFFSET	-9.47252	-3.48043	-0.698563
		CHANNELS 3  Xrotation Yrotation Zrotation
		JOINT LeftLeg
		{
			OFFSET	-2.10259	-41.1994	-0.644037
			CHANNELS 3  Xrotation Yrotation Zrotation
			JOINT LeftFoot
			{
				OFFSET	-2.05598	-37.8983	3.25925
				CHANNELS 3  Xrotation Yrotation Zrotation
				JOINT LeftToeBase
				{
					OFFSET	0	-4.64446	-12.3357
					CHANNELS 3  Xrotation Yrotation Zrotation
					End Site
					{
						OFFSET	0	-1.85779	-7.43114
					}
				}
			}
		}
	}
	JOINT RightUpLeg
	{
		OFFSET	9.47252	-3.48043	-0.698563
		CHANNELS 3  Xrotation Yrotation Zrotation
		JOINT RightLeg
		{
			OFFSET	2.10259	-41.1994	-0.644037
			CHANNELS 3  Xrotation Yrotation Zrotation
			JOINT RightFoot
			{
				OFFSET	2.05598	-37.8983	3.25925
				CHANNELS 3  Xrotation Yrotation Zrotation
				JOINT RightToeBase
				{
					OFFSET	0	-4.64446	-12.3357
					CHANNELS 3  Xrotation Yrotation Zrotation
					End Site
					{
						OFFSET	0	-1.85779	-7.43114
					}
				}
			}
		}
	}
}
MOTION
Frames: 18
Frame Time: 0.020408
 79.9423 64.665 -96.7976 176.65 -148.74 -178.53 179.998 -179.977 174.191 155.609 -179.955 170.318 155.142 -179.864 170.318 162.388 -179.977 174.191 175.035 179.832 178.071 8.28899 -14.3055 -10.7461 2.72876 -8.23005 -3.95933 176.311 -151.424 171.97 49.0006 1.48463 4.53607 37.0996 -37.5596 22.7556 -0 -13.5715 -16.0322 178.846 152.364 -177.494 25.7997 -3.41233 -18.4238 17.0385 46.7009 -10.7355 -0 17.2964 -1.07214 67.6276 -6.77966 -27.1248 112.046 177.094 179.699 161.853 -179.967 -169.315 20.0367 0 0 70.2282 -21.0212 -7.94223 132.204 -169.944 179.757 155.75 179.978 174.264 24.3695 0 0
 80.5435 63.7651 -92.3742 178.554 -149.8 -177.597 179.998 -179.982 174.149 155.32 -179.965 170.248 154.794 -179.896 170.248 162.007 -179.982 174.149 175.376 179.843 178.056 9.50791 -14.439 -10.6652 3.1038 -7.81188 -3.95658 175.291 -151.606 169.732 53.6837 -2.19815 2.90846 37.2466 -36.69 22.4439 -0 -13.5766 -16.9769 179.059 152.025 -177.956 25.7085 -5.97067 -18.917 16.4865 44.2123 -9.95357 -0 17.1463 1.20135 67.8947 -7.83349 -25.6844 103.631 175.086 179.58 164.274 -179.944 -169.714 19.956 0 0 67.5977 -23.2835 -8.23234 136.6 -169.195 179.739 155.752 -179.991 174.315 24.2835 0 0
 81.357 62.7271 -87.7141 0.688071 -29.2565 3.18333 179.999 -179.988 174.157 155.168 -179.977 170.261 154.505 -179.93 170.261 161.481 -179.988 174.157 176.312 179.875 178.056 12.4534 -15.2882 -9.66962 3.96546 -8.72295 -3.79395 174.359 -151.871 167.675 57.3338 -5.90714 1.95674 38.0191 -36.5977 23.1253 -0 -13.6757 -17.5338 179.106 151.498 -178.059 26.5757 -7.3167 -19.578 16.3658 42.1746 -9.36929 -0 17.019 3.89785 70.1968 -9.30781 -24.5538 93.8565 173.61 -179.982 157.858 -179.991 -169.806 19.8755 0 0 64.6528 -25.0511 -8.98507 140.572 -168.115 179.958 155.758 -179.995 174.417 24.1892 0 0
 81.8249 61.0153 -83.613 2.91078 -27.9711 4.59828 179.998 -179.986 173.965 154.982 -179.972 169.941 154.235 -179.915 169.941 161.112 -179.986 173.965 176.825 179.889 177.991 14.2286 -15.8266 -8.8565 4.47399 -9.63328 -3.63548 173.625 -152.303 166.046 60.3523 -8.99186 1.69168 39.2205 -36.8131 24.2838 -0 -13.7486 -17.9861 179.083 151.701 -178.007 26.275 -8.85845 -20.4226 16.0612 39.5412 -8.81734 -0 16.5841 6.10218 72.9638 -9.80838 -23.7259 85.455 173.093 -179.932 156.451 179.949 -169.556 19.7712 0 0 63.1722 -25.7551 -8.97047 144.105 -167.462 -179.85 156.188 -179.922 174.498 24.0925 0 0
 82.1014 58.9815 -78.9211 4.96466 -27.0129 5.4718 179.998 -179.985 173.861 154.869 -179.97 169.768 154.042 -179.91 169.768 160.799 -179.985 173.861 177.34 179.905 177.956 15.9334 -16.1177 -8.05783 4.96227 -10.2306 -3.45747 173.151 -152.562 164.99 62.8781 -11.6141 1.75789 40.4358 -37.1847 25.5293 -0 -13.8398 -18.1376 178.755 151.381 -177.295 26.2697 -9.48331 -21.1283 16.0056 37.6227 -8.31757 -0 16.1497 8.1883 75.4602 -9.95723 -22.5029 79.771 173.232 -179.988 156.469 179.984 -169.102 19.6586 0 0 61.6146 -25.7814 -9.47985 146.952 -166.984 -179.794 156.296 -179.931 174.616 24.0009 0 0
 83.1489 56.1019 -74.9036 7.38208 -24.7567 6.65741 180 -179.996 173.572 154.912 -179.992 169.287 154.045 -179.975 169.287 160.686 -179.996 173.572 177.68 179.913 177.859 16.9056 -15.9491 -7.6631 5.2434 -10.0286 -3.35089 172.087 -152.916 162.602 64.5329 -13.8665 2.48445 41.9008 -37.8891 27.1325 -0 -13.8361 -18.1133 178.498 151.624 -176.737 24.9107 -10.7168 -22.8509 15.8896 34.837 -7.53743 -0 15.3507 10.096 77.5414 -10.0678 -22.4497 78.2648 174.555 179.826 157.134 179.976 -168.534 19.5273 0 0 60.1026 -24.7655 -9.93626 147.573 -166.684 -179.724 157.91 -179.988 174.705 23.9128 0 0
 83.2413 53.8027 -70.3997 9.42875 -23.5026 6.74609 179.998 -179.985 173.408 154.867 -179.971 169.014 154.071 -179.912 169.014 160.891 -179.985 173.408 177.124 179.89 177.806 15.268 -15.8286 -8.31485 4.76906 -9.82843 -3.50024 171.425 -152.644 161.109 66.6513 -15.4695 4.24448 43.4578 -38.3568 28.4982 -0 -13.8179 -18.6355 177.955 152.221 -175.554 23.1932 -11.2516 -24.5067 16.2509 34.108 -7.51058 -0 14.9107 11.7757 79.0335 -10.3248 -20.9587 80.3974 175.798 179.736 156.717 179.99 -168.534 19.4034 0 0 59.8075 -24.2838 -9.86572 147.386 -166.309 -179.91 157.286 179.997 174.755 23.8098 0 0
 83.5843 51.1581 -65.8114 11.5459 -22.4397 6.7171 179.998 -179.985 173.323 154.809 -179.97 168.872 154.075 -179.91 168.872 161.042 -179.985 173.323 176.663 179.87 177.778 14.013 -15.7911 -8.50897 4.39102 -10.2301 -3.53258 171.1 -152.724 160.369 68.7014 -16.5089 6.10565 44.804 -38.7671 29.9249 -0 -14.0733 -19.0409 177.51 152.848 -174.586 21.6134 -11.4707 -26.1772 16.6493 34.0008 -7.61648 -0 14.8261 13.5555 80.2385 -10.5053 -19.5924 82.2256 176.748 179.64 156.245 179.992 -168.543 19.299 0 0 60.9781 -24.5242 -9.55482 144.659 -165.749 179.988 156.988 179.98 174.62 23.6957 0 0
 84.1945 47.8658 -61.2483 14.056 -21.4644 6.78054 179.998 -179.987 173.296 154.77 -179.974 168.827 154.048 -179.921 168.827 161.047 -179.987 173.296 176.576 179.866 177.769 13.9101 -16.086 -8.12974 4.34195 -11.2821 -3.44661 170.898 -152.802 159.907 70.2345 -17.0386 7.61025 45.893 -38.9509 30.9951 -0 -14.3101 -19.3606 177.21 154.097 -173.933 19.9308 -11.3591 -27.9849 17.188 34.8901 -8.24117 -0 15.0349 15.0887 80.9085 -10.9446 -18.4568 83.9322 177.614 179.54 156.411 179.995 -168.571 19.2099 0 0 62.3087 -25.7049 -9.4235 140.711 -165.223 179.914 157.036 179.968 174.139 23.5702 0 0
 84.9141 44.4348 -56.7884 16.374 -20.7304 6.77933 179.998 -179.987 173.34 154.738 -179.973 168.9 154.021 -179.92 168.9 161.039 -179.987 173.34 176.534 179.866 177.784 13.9804 -16.5069 -7.53524 4.33806 -12.7335 -3.31233 170.837 -152.936 159.769 70.936 -16.9829 8.89165 46.8983 -39.3121 31.9687 -0 -14.5356 -19.2485 177.031 155.425 -173.547 18.8727 -10.888 -29.8495 18.0858 37.6195 -9.38853 -0 15.9874 16.5886 80.8207 -12.122 -17.7532 86.2654 178.74 179.487 156.722 179.993 -168.593 19.133 0 0 63.8752 -26.8373 -9.17821 137.512 -164.674 179.813 156.891 179.995 173.718 23.4503 0 0
 85.4903 41.1788 -53.0012 18.5538 -20.5991 6.70536 179.998 -179.986 173.477 154.714 -179.972 169.129 153.997 -179.916 169.129 161.025 -179.986 173.477 176.523 179.868 177.83 14.2091 -16.096 -6.20489 4.3591 -13.9678 -2.91661 171.261 -153.119 160.732 71.6687 -16.7729 9.734 48.948 -40.7187 34.7119 -0 -15.2059 -19.0694 176.921 157.17 -173.321 17.8902 -10.3628 -31.6157 19.1165 40.7041 -10.9341 -0 17.5354 17.9743 79.9133 -13.1378 -17.7651 89.8679 -179.517 179.474 156.621 179.998 -168.585 19.0636 0 0 65.1914 -27.8715 -8.84073 134.93 -164.194 179.718 156.882 -179.974 173.013 23.3229 0 0
 86.0379 36.6477 -48.7756 21.7868 -21.0943 5.65357 179.998 -179.981 173.969 154.692 -179.963 169.948 153.973 -179.888 169.948 161.014 -179.981 173.969 176.507 179.877 177.993 14.3662 -15.4122 -4.92861 4.36913 -14.765 -2.51447 171.585 -153.74 161.467 70.7881 -15.8677 9.93696 50.5705 -41.6131 36.9251 -0 -15.6308 -18.5119 176.842 158.753 -173.166 16.6371 -9.12509 -33.7035 20.6014 44.5462 -13.0207 -0 19.5916 19.0954 79.1765 -14.1266 -17.616 93.0762 -177.411 179.833 155.902 -179.998 -168.502 18.9667 0 0 66.281 -28.7667 -8.47773 132.771 -163.312 179.683 156.719 -179.93 172.42 23.1994 0 0
 86.3775 32.3079 -44.6868 24.8315 -21.8766 4.7966 179.998 -179.982 174.399 154.66 -179.964 170.665 153.989 -179.891 170.665 161.131 -179.982 174.399 176.171 179.875 178.137 13.4342 -14.9392 -4.82406 4.08054 -14.6805 -2.46122 171.986 -155.098 162.38 68.1038 -14.252 9.94376 52.087 -42.4102 38.8244 -0 -15.9133 -17.8494 176.509 160.253 -172.465 16.2444 -6.79202 -35.2723 23.1081 50.3037 -16.3171 -0 22.0961 19.7733 78.6353 -14.9506 -17.6987 95.5635 -175.448 -179.937 155.828 179.963 -168.507 18.8476 0 0 66.9671 -30.0157 -8.26716 131.01 -162.393 179.587 156.741 -179.95 171.917 23.0761 0 0
 86.9041 28.6027 -40.6498 29.1462 -22.4744 4.93753 179.999 -179.987 174.657 154.406 -179.974 171.095 153.871 -179.921 171.095 161.358 -179.987 174.657 175.16 179.85 178.225 10.6689 -13.9839 -5.39813 3.2483 -13.7372 -2.57791 173.113 -156.243 164.922 63.9761 -11.6525 11.6962 54.2248 -43.508 41.6209 -0 -16.1121 -16.9479 176.135 162.154 -171.693 16.6418 -4.80741 -36.0999 27.217 56.9563 -21.5172 -0 24.948 20.3653 76.4254 -15.0724 -19.153 97.7174 -173.523 -179.857 156.009 179.964 -168.518 18.7041 0 0 68.6176 -30.358 -7.38425 129.728 -161.85 -179.904 156.772 179.941 171.435 22.966 0 0
 87.0574 25.14 -37.0155 33.8773 -23.8244 4.51348 179.999 -179.99 174.949 154.127 -179.979 171.581 153.703 -179.938 171.581 161.498 -179.99 174.949 174.305 179.833 178.325 8.47708 -12.0181 -4.72779 2.56581 -12.5153 -2.28157 174.734 -157.981 168.545 59.3884 -9.34162 13.7565 58.0755 -45.5772 46.8164 -0 -16.6096 -15.7743 175.973 163.82 -171.387 16.5108 -2.94382 -37.4909 32.4595 62.3877 -27.5248 -0 27.4906 20.9631 72.9483 -14.5606 -20.0569 100.337 -172.081 -179.845 156.114 179.939 -168.525 18.56 0 0 69.2172 -29.7149 -5.64677 126.96 -161.832 -179.868 156.972 179.977 170.984 22.8647 0 0
 87.6676 21.618 -33.4508 38.8633 -24.2191 3.76778 179.999 -179.992 175.198 153.908 -179.985 171.996 153.584 -179.955 171.996 161.646 -179.992 175.198 173.546 179.82 178.409 6.55824 -9.58371 -3.05083 1.95799 -11.4333 -1.69063 176.863 -160.076 173.23 55.7665 -6.88606 15.9214 63.542 -47.8159 53.9368 -0 -17.3019 -14.7929 175.955 164.97 -171.383 16.2121 -0.807497 -39.3026 40.0383 67.2313 -35.8847 -0 29.964 21.5998 70.0239 -13.0003 -20.7275 103.126 -171.415 -179.754 156.315 179.933 -168.541 18.4296 0 0 69.5109 -29.2608 -3.46091 123.785 -162.438 179.946 156.96 -179.994 170.368 22.7705 0 0
 88.1617 18.4945 -30.8292 44.4553 -24.6914 2.5504 179.999 -179.993 175.456 153.79 -179.986 172.427 153.469 -179.959 172.427 161.574 -179.993 175.456 173.49 179.828 178.495 6.52197 -7.3321 -1.13606 1.9365 -10.2154 -1.01064 179.259 -162.007 178.411 51.4528 -4.07464 18.6856 69.7008 -49.5371 62.0348 -0 -17.8885 -13.7928 176.018 166.434 -171.569 16.5124 0.470774 -40.7031 48.9409 70.5906 -45.3126 -0 32.1548 22.5753 66.9624 -10.0715 -20.9287 105.347 -171.327 -179.692 156.794 179.955 -168.543 18.3068 0 0 67.673 -28.8313 -1.51338 121.129 -163.341 179.828 157.853 179.903 169.761 22.6805 0 0
 88.142 17.6507 -28.6446 50.2281 -24.7451 1.79309 0.000519508 0.00623762 -4.76096 153.585 179.988 172.065 153.282 179.963 172.065 161.468 179.994 175.239 173.347 179.816 178.424 6.27417 -5.49845 0.124891 1.8647 -8.88006 -0.530663 1.35897 -16.1544 2.89619 44.8871 -0.360237 23.3477 75.6834 -50.5484 69.9285 -0 -18.2925 -12.7289 176.004 167.336 -171.572 16.7309 1.10677 -41.5826 55.1781 72.0188 -51.9779 -0 33.8292 23.6444 62.8709 -6.20167 -20.5326 106.588 -172.05 -179.843 157.275 179.874 -168.616 18.1931 0 0 65.1972 -27.3901 1.14763 119.821 -163.999 -179.718 157.146 179.973 169.334 22.593 0 0
